<svg id="Layer_1" enable-background="new 0 0 512 512" height="512" viewBox="0 0 512 512" width="512" xmlns="http://www.w3.org/2000/svg"><g><g><g><g><g><g><g><g id="XMLID_2176_"><g id="XMLID_2177_"><g id="XMLID_2178_"><g id="XMLID_2179_"><g id="XMLID_2180_"><g id="XMLID_2181_"><g id="XMLID_2182_"><g id="XMLID_2183_"><g id="XMLID_2184_"><g id="XMLID_2185_"><g id="XMLID_2186_"><g id="XMLID_2187_"><g id="XMLID_2188_"><g id="XMLID_2189_"><g id="XMLID_2190_"><circle cx="256" cy="256" fill="#ff6326" r="256"/></g></g></g></g></g></g></g></g></g></g></g></g></g></g></g></g></g></g></g></g></g><path d="m65.651 400.484 91.902 91.902c30.306 12.636 63.562 19.614 98.447 19.614 141.385 0 256-114.615 256-256 0-22.565-2.92-44.448-8.401-65.292l-91.519-91.518-23.443 11.397-44.061-44.061-77.322 94.703-94.704-94.703z" fill="#e20059"/><path d="m412.081 400.484h-346.43v-222.983l173.215-10.768 173.215 10.768z" fill="#fff"/><path d="m412.08 177.5v222.98h-173.21v-233.75z" fill="#ecf9fb"/><path d="m65.651 99.187h346.43v78.314h-346.43z" fill="#00c6cb"/><path d="m238.87 99.19h173.21v78.31h-173.21z" fill="#4793ff"/><g><path d="m110.838 228.028h40.63v40.63h-40.63z" fill="#c8ffff"/><path d="m182.647 228.028h40.63v40.63h-40.63z" fill="#d5e7f6"/><g fill="#b1d5f1"><path d="m254.456 228.028h40.63v40.63h-40.63z"/><path d="m326.265 228.028h40.63v40.63h-40.63z"/></g></g><g><path d="m110.838 303.366h40.63v40.63h-40.63z" fill="#c8ffff"/><path d="m182.647 303.366h40.63v40.63h-40.63z" fill="#d5e7f6"/><path d="m254.456 303.366h40.63v40.63h-40.63z" fill="#b1d5f1"/></g><g><ellipse cx="390.319" cy="359.676" fill="#ffec29" rx="73.131" ry="73.131" transform="matrix(.707 -.707 .707 .707 -140.007 381.344)"/><path d="m390.319 286.545h-.002v146.262h.002c40.389 0 73.131-32.742 73.131-73.131 0-40.39-32.742-73.131-73.131-73.131z" fill="#ffcb00"/><g><g><g><path d="m394.272 402.095c-23.39 0-42.419-19.029-42.419-42.419s19.029-42.419 42.419-42.419c8.5 0 16.704 2.507 23.725 7.25l8.286 5.599-11.197 16.572-8.286-5.598c-3.701-2.501-8.033-3.823-12.527-3.823-12.362 0-22.419 10.057-22.419 22.419s10.057 22.419 22.419 22.419c4.483 0 8.232-1.314 11.143-3.905.567-.505 1.112-1.068 1.619-1.672l6.426-7.662 15.324 12.851-6.426 7.663c-1.127 1.343-2.352 2.607-3.642 3.756-6.59 5.867-15.042 8.969-24.445 8.969z" fill="#ff6326"/></g></g></g><g><g fill="#e20059"><path d="m394.276 337.262c-1.35 0-2.68.12-3.96.36v-20.17c1.3-.13 2.63-.19 3.96-.19 8.5 0 16.7 2.5 23.72 7.25l8.29 5.59-11.2 16.58-8.29-5.6c-3.7-2.5-8.03-3.82-12.52-3.82z"/><path d="m428.786 381.702-6.43 7.67c-1.13 1.34-2.35 2.6-3.64 3.75-6.59 5.87-15.04 8.97-24.44 8.97-1.33 0-2.66-.06-3.96-.19v-20.17c1.28.24 2.61.36 3.96.36 4.48 0 8.23-1.31 11.14-3.9.57-.51 1.11-1.07 1.62-1.67l6.42-7.67z"/></g></g></g><g><g><path d="m133.156 66.526h39.394v65.322h-39.394z" fill="#fff"/></g><g><g><path d="m305.182 66.526h39.394v65.322h-39.394z" fill="#ecf9fb"/></g></g></g></g></svg>