<svg id="Layer_1" data-name="Layer 1" xmlns="http://www.w3.org/2000/svg" viewBox="0 0 118.14 122"><defs><style>.cls-1{fill:#97b434;}.cls-2{fill:#bc79a2;}.cls-3{fill:#f5a640;}.cls-4{fill:#ee8682;}.cls-5{fill:#ee5f90;}.cls-6{fill:#55c2a7;}.cls-7{fill:#3f9fc4;}.cls-8{fill:#f3d348;}.cls-9{fill:none;}</style></defs><path class="cls-1" d="M591.66,250.22c0,15-15.16,27.22-15.16,27.22s-15.17-12.19-15.17-27.22S568.12,223,576.5,223,591.66,235.19,591.66,250.22Z" transform="translate(-503.01 -223)"/><path class="cls-2" d="M589.94,333.77a68.58,68.58,0,0,1-28.57,10.69c0-.56,0-1.12,0-1.7,0-15,15.17-27.22,15.17-27.22S586,323.16,589.94,333.77Z" transform="translate(-503.01 -223)"/><path class="cls-3" d="M557.45,296.49s-12.19,15.16-27.22,15.16S503,304.86,503,296.49s12.19-15.16,27.22-15.16S557.45,296.49,557.45,296.49Z" transform="translate(-503.01 -223)"/><path class="cls-4" d="M621,281.4a68.45,68.45,0,0,1-8.45,28c-10-4.2-17-12.94-17-12.94S606.79,282.51,621,281.4Z" transform="translate(-503.01 -223)"/><path class="cls-5" d="M554.5,339.93a47,47,0,0,1-6,5.07h0a68.36,68.36,0,0,1-26.59-6.77c.89-6.12,4.8-13.42,11.12-19.74,10.63-10.63,30-8.53,30-8.53S565.13,329.3,554.5,339.93Z" transform="translate(-503.01 -223)"/><path class="cls-6" d="M621.15,273.23c-.39.42-.8.84-1.22,1.26C609.3,285.12,590,283,590,283s-2.1-19.34,8.53-30a42.14,42.14,0,0,1,14.57-9.75A68.71,68.71,0,0,1,621.15,273.23Z" transform="translate(-503.01 -223)"/><path class="cls-7" d="M610.65,312.63a69.49,69.49,0,0,1-17.62,19C588.72,321.48,590,310,590,310S600.76,308.78,610.65,312.63Z" transform="translate(-503.01 -223)"/><path class="cls-8" d="M563,283s-19.33,2.1-30-8.53-14.45-24.05-8.53-30,19.34-2.11,30,8.52S563,283,563,283Z" transform="translate(-503.01 -223)"/><path class="cls-9" d="M557.45,296.49s-12.19,15.16-27.22,15.16S503,304.86,503,296.49s12.19-15.16,27.22-15.16S557.45,296.49,557.45,296.49Z" transform="translate(-503.01 -223)"/><path class="cls-9" d="M554.5,339.93a47,47,0,0,1-6,5.07h0a68.36,68.36,0,0,1-26.59-6.77c.89-6.12,4.8-13.42,11.12-19.74,10.63-10.63,30-8.53,30-8.53S565.13,329.3,554.5,339.93Z" transform="translate(-503.01 -223)"/><path class="cls-9" d="M563,283s-19.33,2.1-30-8.53-14.45-24.05-8.53-30,19.34-2.11,30,8.52S563,283,563,283Z" transform="translate(-503.01 -223)"/><path class="cls-9" d="M589.94,333.77a68.58,68.58,0,0,1-28.57,10.69c0-.56,0-1.12,0-1.7,0-15,15.17-27.22,15.17-27.22S586,323.16,589.94,333.77Z" transform="translate(-503.01 -223)"/><path class="cls-9" d="M591.66,250.22c0,15-15.16,27.22-15.16,27.22s-15.17-12.19-15.17-27.22S568.12,223,576.5,223,591.66,235.19,591.66,250.22Z" transform="translate(-503.01 -223)"/><path class="cls-9" d="M610.65,312.63a69.49,69.49,0,0,1-17.62,19C588.72,321.48,590,310,590,310S600.76,308.78,610.65,312.63Z" transform="translate(-503.01 -223)"/><path class="cls-9" d="M621,281.4a68.45,68.45,0,0,1-8.45,28c-10-4.2-17-12.94-17-12.94S606.79,282.51,621,281.4Z" transform="translate(-503.01 -223)"/><path class="cls-9" d="M621.15,273.23c-.39.42-.8.84-1.22,1.26C609.3,285.12,590,283,590,283s-2.1-19.34,8.53-30a42.14,42.14,0,0,1,14.57-9.75A68.71,68.71,0,0,1,621.15,273.23Z" transform="translate(-503.01 -223)"/></svg>