<svg id="Layer_1" data-name="Layer 1" xmlns="http://www.w3.org/2000/svg" viewBox="0 0 529.12 122"><defs><style>.cls-1{fill:#97b434;}.cls-2{fill:#bc79a2;}.cls-3{fill:#f5a640;}.cls-4{fill:#ee8682;}.cls-5{fill:#ee5f90;}.cls-6{fill:#55c2a7;}.cls-7{fill:#3f9fc4;}.cls-8{fill:#f3d348;}.cls-9{fill:none;}.cls-10{font-size:25.28px;font-family:Montserrat-Light, Montserrat;font-weight:300;letter-spacing:2.3em;}.cls-10,.cls-13{fill:#3c4043;}.cls-11{letter-spacing:2.29em;}.cls-12{letter-spacing:2.3em;}.cls-13{font-size:101.6px;font-family:OPTIBodoni-Antiqua;}</style></defs><path class="cls-1" d="M470,250.22c0,15-15.16,27.22-15.16,27.22s-15.16-12.19-15.16-27.22S446.51,223,454.88,223,470,235.19,470,250.22Z" transform="translate(-381.39 -223)"/><path class="cls-2" d="M468.32,333.77a68.59,68.59,0,0,1-28.56,10.69c0-.56,0-1.12,0-1.7,0-15,15.16-27.22,15.16-27.22S464.35,323.16,468.32,333.77Z" transform="translate(-381.39 -223)"/><path class="cls-3" d="M435.83,296.49s-12.19,15.16-27.22,15.16-27.22-6.79-27.22-15.16,12.19-15.16,27.22-15.16S435.83,296.49,435.83,296.49Z" transform="translate(-381.39 -223)"/><path class="cls-4" d="M499.37,281.4a68.59,68.59,0,0,1-8.44,28c-10-4.2-17-12.94-17-12.94S485.17,282.51,499.37,281.4Z" transform="translate(-381.39 -223)"/><path class="cls-5" d="M432.88,339.93a46.9,46.9,0,0,1-6,5.07h0a68.36,68.36,0,0,1-26.59-6.77c.9-6.12,4.8-13.42,11.12-19.74,10.63-10.63,30-8.53,30-8.53S443.51,329.3,432.88,339.93Z" transform="translate(-381.39 -223)"/><path class="cls-6" d="M499.54,273.23l-1.22,1.26c-10.64,10.63-30,8.53-30,8.53s-2.1-19.34,8.53-30a42.24,42.24,0,0,1,14.57-9.75A68.86,68.86,0,0,1,499.54,273.23Z" transform="translate(-381.39 -223)"/><path class="cls-7" d="M489,312.63a69.8,69.8,0,0,1-17.62,19c-4.32-10.14-3.07-21.66-3.07-21.66S479.15,308.78,489,312.63Z" transform="translate(-381.39 -223)"/><path class="cls-8" d="M441.41,283s-19.34,2.1-30-8.53-14.45-24.05-8.53-30,19.34-2.11,30,8.52S441.41,283,441.41,283Z" transform="translate(-381.39 -223)"/><path class="cls-9" d="M435.83,296.49s-12.19,15.16-27.22,15.16-27.22-6.79-27.22-15.16,12.19-15.16,27.22-15.16S435.83,296.49,435.83,296.49Z" transform="translate(-381.39 -223)"/><path class="cls-9" d="M432.88,339.93a46.9,46.9,0,0,1-6,5.07h0a68.36,68.36,0,0,1-26.59-6.77c.9-6.12,4.8-13.42,11.12-19.74,10.63-10.63,30-8.53,30-8.53S443.51,329.3,432.88,339.93Z" transform="translate(-381.39 -223)"/><path class="cls-9" d="M441.41,283s-19.34,2.1-30-8.53-14.45-24.05-8.53-30,19.34-2.11,30,8.52S441.41,283,441.41,283Z" transform="translate(-381.39 -223)"/><path class="cls-9" d="M468.32,333.77a68.59,68.59,0,0,1-28.56,10.69c0-.56,0-1.12,0-1.7,0-15,15.16-27.22,15.16-27.22S464.35,323.16,468.32,333.77Z" transform="translate(-381.39 -223)"/><path class="cls-9" d="M470,250.22c0,15-15.16,27.22-15.16,27.22s-15.16-12.19-15.16-27.22S446.51,223,454.88,223,470,235.19,470,250.22Z" transform="translate(-381.39 -223)"/><path class="cls-9" d="M489,312.63a69.8,69.8,0,0,1-17.62,19c-4.32-10.14-3.07-21.66-3.07-21.66S479.15,308.78,489,312.63Z" transform="translate(-381.39 -223)"/><path class="cls-9" d="M499.37,281.4a68.59,68.59,0,0,1-8.44,28c-10-4.2-17-12.94-17-12.94S485.17,282.51,499.37,281.4Z" transform="translate(-381.39 -223)"/><path class="cls-9" d="M499.54,273.23l-1.22,1.26c-10.64,10.63-30,8.53-30,8.53s-2.1-19.34,8.53-30a42.24,42.24,0,0,1,14.57-9.75A68.86,68.86,0,0,1,499.54,273.23Z" transform="translate(-381.39 -223)"/><text class="cls-10" transform="translate(136.09 115.92) scale(0.91 1)">H<tspan class="cls-11" x="72.51" y="0">O</tspan><tspan class="cls-12" x="145.34" y="0">AKHÔ</tspan></text><text class="cls-13" transform="translate(123.73 86.82) scale(1.01 1)">RADIUS</text></svg>