<svg height="512pt" viewBox="0 0 512 512" width="512pt" xmlns="http://www.w3.org/2000/svg"><path d="m512 256c0 141.386719-114.613281 256-256 256s-256-114.613281-256-256 114.613281-256 256-256 256 114.613281 256 256zm0 0" fill="#ffe955"/><path d="m512 256c0 141.378906-114.621094 256-256 256s-256-114.621094-256-256c0-46.21875 12.25-89.570312 33.679688-127 44.121093 77.070312 127.160156 129 222.320312 129s178.210938-51.929688 222.320312-129c21.429688 37.429688 33.679688 80.78125 33.679688 127zm0 0" fill="#ffd112"/><path d="m481.261719 377.699219v.011719c-43.292969 79.96875-127.941407 134.289062-225.261719 134.289062s-181.96875-54.320312-225.261719-134.289062v-.011719zm0 0" fill="#ff9f00"/><path d="m398.558594 468.660156c-40.667969 27.320313-89.597656 43.28125-142.25 43.339844h-.308594c-52.769531 0-101.808594-15.96875-142.558594-43.339844 2.269532-52.140625 35.558594-98.148437 84.839844-116.429687l6.058594-2.242188 3.210937-1.1875 13.769531-5.109375 5.128907-1.902344h59.101562l5.128907 1.902344 13.691406 5.078125.078125.03125 3.210937 1.1875 6.058594 2.242188c7.722656 2.859375 15.050781 6.410156 21.929688 10.558593 37.023437 22.289063 61 61.902344 62.910156 105.871094zm0 0" fill="#8fc9f7"/><path d="m256.308594 341.789062v170.210938h-.308594c-52.769531 0-101.808594-15.96875-142.558594-43.339844 1.917969-44.019531 25.949219-83.679687 63.046875-105.960937 6.839844-4.109375 14.121094-7.621094 21.792969-10.46875l6.058594-2.242188 3.210937-1.1875.089844-.03125 13.679687-5.078125 5.128907-1.902344zm0 0" fill="#d0f6ff"/><path d="m283.46875 510.539062c-9.019531.972657-18.1875 1.460938-27.46875 1.460938s-18.449219-.488281-27.46875-1.460938l9.097656-54.128906 9.992188-59.410156h16.757812l10.292969 61.191406zm0 0" fill="#474f6f"/><path d="m398.558594 468.660156c-33.578125 22.558594-72.789063 37.371094-115.089844 41.878906-9.019531.972657-18.1875 1.460938-27.46875 1.460938s-18.449219-.488281-27.46875-1.460938c-41.953125-4.46875-80.859375-19.078124-114.25-41.328124-.28125-.179688-.5625-.359376-.839844-.550782.199219-4.480468.617188-8.910156 1.269532-13.289062v-.011719c6.398437-43.539063 34.539062-81.238281 75.007812-99.597656l47.910156 100.648437 18.371094 38.589844 18.671875-36.808594 51.117187-100.78125c42.582032 20.871094 70.691407 63.488282 72.769532 111.25zm0 0" fill="#474f6f"/><g fill="#323b5a"><path d="m283.46875 510.539062c-9.007812.960938-18.167969 1.460938-27.4375 1.460938v-115h8.347656l9.960938 59.238281zm0 0"/><path d="m266.5 397.332031 19.625-19.621093-59.3125.800781 18.824219 18.820312zm0 0"/><path d="m398.648438 468.589844c-2.039063 1.378906-4.109376 2.71875-6.1875 4.039062-32.191407 20.332032-69.222657 33.671875-108.992188 37.910156-9.007812.960938-18.167969 1.460938-27.4375 1.460938h-.03125v-17l.03125-.058594 18.308594-38.703125 47.628906-100.628906c1.25.550781 2.492188 1.140625 3.722656 1.742187 6.660156 3.25 12.980469 7.039063 18.898438 11.296876 8.160156 5.890624 15.582031 12.671874 22.128906 20.203124 18.992188 21.796876 30.589844 49.75 31.929688 79.738282zm0 0"/></g><path d="m335.648438 362.789062-.1875 96.550782h-31.972657v24.28125l-47.488281 11.378906 48.371094-146.230469.078125.03125 3.210937 1.1875 6.058594 2.242188c7.722656 2.859375 15.050781 6.410156 21.929688 10.558593zm0 0" fill="#20273a"/><path d="m208.511719 483.621094v-24.28125h-31.972657l-.050781-96.640625c6.839844-4.109375 14.121094-7.621094 21.792969-10.46875l6.058594-2.242188 3.210937-1.1875.089844-.03125 48.359375 146.230469zm0 0" fill="#313b5a"/><path d="m154.558594 213.816406c-12.476563 0-22.59375 10.117188-22.59375 22.59375 0 22.730469 18.425781 41.15625 41.15625 41.15625v-63.796875zm0 0" fill="#ffa87a"/><path d="m357.472656 213.816406c12.476563 0 22.59375 10.117188 22.59375 22.59375 0 22.730469-18.425781 41.15625-41.15625 41.15625v-63.796875zm0 0" fill="#e3835a"/><path d="m290.242188 295.242188v48.707031c0 18.898437-15.320313 34.226562-34.226563 34.226562-18.902344 0-34.230469-15.328125-34.230469-34.226562v-48.707031zm0 0" fill="#ffa87a"/><path d="m290.242188 295.242188v48.707031c0 18.898437-15.320313 34.226562-34.226563 34.226562v-82.933593zm0 0" fill="#e3835a"/><path d="m344.332031 218.0625v33.292969c0 48.757812-39.527343 88.308593-88.300781 88.316406-.007812 0-.007812 0-.015625 0-48.757813 0-88.308594-39.550781-88.308594-88.316406v-33.292969c0-5.019531.410157-9.941406 1.238281-14.722656 5.757813-34.402344 31.429688-62.050782 64.742188-70.75 7.128906-1.851563 14.621094-2.835938 22.328125-2.835938h.015625c7.722656 0 15.207031.984375 22.335938 2.851563 33.316406 8.679687 58.957031 36.332031 64.726562 70.734375.816406 4.78125 1.238281 9.703125 1.238281 14.722656zm0 0" fill="#ffc0a4"/><path d="m344.332031 218.0625v33.292969c0 48.757812-39.527343 88.308593-88.300781 88.316406v-209.917969c7.722656 0 15.207031.984375 22.335938 2.851563 33.316406 8.683593 58.957031 36.332031 64.726562 70.734375.816406 4.78125 1.238281 9.703125 1.238281 14.722656zm0 0" fill="#ffa87a"/><path d="m239.183594 240.285156c0 6.003906-4.867188 10.875-10.871094 10.875s-10.875-4.871094-10.875-10.875 4.871094-10.871094 10.875-10.871094 10.871094 4.867188 10.871094 10.871094zm0 0" fill="#323b5a"/><path d="m294.59375 240.285156c0 6.003906-4.871094 10.875-10.875 10.875s-10.871094-4.871094-10.871094-10.875 4.867188-10.871094 10.871094-10.871094 10.875 4.867188 10.875 10.871094zm0 0" fill="#20273a"/><path d="m363.273438 209.902344c0 5.15625-3.875 9.511718-8.996094 10.113281-4.441406.523437-8.960938.785156-13.535156.785156-33.503907 0-63.683594-14.308593-84.710938-37.1875-21.046875 22.878907-51.21875 37.1875-84.722656 37.1875-4.519532 0-8.976563-.253906-13.367188-.769531-2.617187-.296875-4.902344-1.570312-6.550781-3.410156-1.640625-1.851563-2.636719-4.265625-2.636719-6.910156 0-39.953126 21.570313-77.253907 56.976563-95.757813 7.164062-3.734375 14.789062-6.710937 22.773437-8.796875 8.777344-2.277344 18.015625-3.488281 27.511719-3.488281h.015625c9.507812 0 18.742188 1.210937 27.511719 3.515625 4.5625 1.1875 9.003906 2.667968 13.3125 4.40625 20.269531 8.210937 36.875 22.351562 48.410156 39.917968 11.535156 17.546876 18.007813 38.53125 18.007813 60.394532zm0 0" fill="#313b5a"/><path d="m363.273438 209.902344c0 5.15625-3.875 9.511718-8.996094 10.113281-4.441406.523437-8.960938.785156-13.535156.785156-33.503907 0-63.683594-14.308593-84.710938-37.1875v-81.945312c9.507812 0 18.742188 1.210937 27.511719 3.515625 4.5625 1.1875 9.003906 2.667968 13.3125 4.40625 20.269531 8.210937 36.875 22.351562 48.410156 39.917968 11.535156 17.546876 18.007813 38.53125 18.007813 60.394532zm0 0" fill="#20273a"/><path d="m262.640625 230.648438v32.871093c0 3.652344-2.960937 6.609375-6.609375 6.621094h-.011719c-3.660156 0-6.628906-2.96875-6.628906-6.621094v-32.871093c0-3.660157 2.96875-6.617188 6.628906-6.617188h.011719c3.648438.007812 6.609375 2.957031 6.609375 6.617188zm0 0" fill="#ffa87a"/><path d="m262.640625 230.648438v32.871093c0 3.652344-2.960937 6.609375-6.609375 6.621094v-46.109375c3.648438.007812 6.609375 2.957031 6.609375 6.617188zm0 0" fill="#e3835a"/><path d="m282.328125 291.621094c-7.019531 7.027344-16.359375 10.898437-26.296875 10.910156h-.03125c-9.960938 0-19.308594-3.871094-26.339844-10.910156-1.960937-1.949219-1.960937-5.121094 0-7.070313 1.949219-1.949219 5.109375-1.949219 7.070313 0 5.140625 5.148438 11.988281 7.980469 19.269531 7.980469h.03125c7.257812-.011719 14.097656-2.839844 19.230469-7.980469 1.949219-1.949219 5.117187-1.949219 7.066406 0 1.960937 1.949219 1.960937 5.121094 0 7.070313zm0 0" fill="#e3835a"/><path d="m282.328125 291.621094c-7.019531 7.027344-16.359375 10.898437-26.296875 10.910156v-10c7.257812-.011719 14.097656-2.839844 19.230469-7.980469 1.949219-1.949219 5.117187-1.949219 7.066406 0 1.960937 1.949219 1.960937 5.121094 0 7.070313zm0 0" fill="#c55835"/><path d="m207.628906 348.75 14.15625-15.960938 34.230469 45.390626-30.5 24.644531zm0 0" fill="#fff"/><path d="m304.398438 348.75-14.15625-15.960938-34.226563 45.390626 30.496094 24.644531zm0 0" fill="#fff"/></svg>