<?xml version="1.0" encoding="iso-8859-1"?>
<!-- Generator: Adobe Illustrator 19.0.0, SVG Export Plug-In . SVG Version: 6.00 Build 0)  -->
<svg version="1.1" id="Layer_1" xmlns="http://www.w3.org/2000/svg" xmlns:xlink="http://www.w3.org/1999/xlink" x="0px" y="0px"
	 viewBox="0 0 512 512" style="enable-background:new 0 0 512 512;" xml:space="preserve">
<path style="fill:#A780FF;" d="M255.971,15.503c-124.27,0-225.009,100.739-225.009,225.009c0,23.224,3.527,45.625,10.06,66.701
	l90.145,11.301h71.103l53.701-19.5l55.203,19.5h71.103l88.799-11.911c6.414-20.902,9.904-43.087,9.904-66.091
	C480.98,116.243,380.241,15.503,255.971,15.503z"/>
<path style="fill:#9466FF;" d="M311.174,318.514h71.103l88.799-11.911c6.414-20.902,9.904-43.087,9.904-66.091
	c0-124.27-100.739-225.009-225.009-225.009v283.512L311.174,318.514z"/>
<path style="fill:#E6EEFF;" d="M255.971,75.505c-91.132,0-165.007,73.875-165.007,165.007c0,22.294,4.477,43.528,12.491,62.929
	l27.712,15.074h71.103l53.701-10.499l55.203,10.499h71.103l26.037-14.604c8.135-19.526,12.665-40.928,12.665-63.4
	C420.978,149.38,347.103,75.505,255.971,75.505z"/>
<path style="fill:#DAE2F2;" d="M311.174,318.514h71.103l26.037-14.604c8.135-19.526,12.665-40.928,12.665-63.4
	c0-91.132-73.875-165.007-165.007-165.007v232.51L311.174,318.514z"/>
<path style="fill:#67D0FF;" d="M510.482,480.823c-3.6,7.5-12.6,10.499-20.1,6.899c-6-2.701-12.701-6.601-18.101-10.8
	c-21.602-17.402-49.503-17.402-71.103,0c-32.702,26.101-76.204,26.101-108.904,0c-11.1-8.701-23.702-13.201-36.302-13.201
	c-12.002,0-24.301,4.499-34.8,13.201c-32.702,26.101-76.204,26.101-108.904,0c-21.602-17.402-49.503-17.402-71.103,0
	c-6,4.799-13.302,8.699-19.901,11.699c-7.5,3.602-16.502,0.3-19.802-7.2c-3.6-7.5-0.3-16.501,7.2-20.1
	c4.501-2.1,8.701-4.501,12.602-7.8c32.7-26.101,77.202-26.101,109.905,0c21.6,17.402,49.501,17.402,71.103,0
	c16.2-13.201,35.1-19.5,53.701-19.5c19.502-0.3,38.701,6.299,55.203,19.5c21.6,17.402,49.501,17.402,71.103,0
	c32.7-26.101,77.202-26.101,109.904,0c3.6,3.001,7.5,5.4,11.398,7.2C511.081,464.62,514.082,473.62,510.482,480.823z"/>
<path style="fill:#5C5F66;" d="M330.073,187.41l-63.603,63.603c-2.699,3.001-6.599,4.501-10.499,4.501c-3.9,0-7.8-1.5-10.499-4.501
	l-63.603-63.603c-6-5.7-6-15.301,0-21.001c5.698-6,15.299-6,21,0l53.103,52.802l53.103-52.802c5.7-6,15.301-6,21,0
	C336.074,172.108,336.074,181.709,330.073,187.41z"/>
<path style="fill:#5ABEFF;" d="M510.482,480.823c-3.6,7.5-12.6,10.499-20.1,6.899c-6-2.701-12.701-6.601-18.101-10.8
	c-21.602-17.402-49.503-17.402-71.103,0c-32.702,26.101-76.204,26.101-108.904,0c-11.1-8.701-23.702-13.201-36.302-13.201V434.02
	c19.502-0.3,38.701,6.299,55.203,19.5c21.6,17.402,49.501,17.402,71.103,0c32.7-26.101,77.202-26.101,109.904,0
	c3.6,3.001,7.5,5.4,11.398,7.2C511.081,464.62,514.082,473.62,510.482,480.823z"/>
<path style="fill:#67D0FF;" d="M510.482,405.82c-3.6,7.5-12.6,10.499-20.1,6.899c-6-2.701-12.701-6.601-18.101-10.8
	c-21.602-17.402-49.503-17.402-71.103,0c-32.702,26.101-76.204,26.101-108.904,0c-11.1-8.701-23.702-13.201-36.302-13.201
	c-12.002,0-24.301,4.499-34.8,13.201c-32.702,26.101-76.204,26.101-108.904,0c-21.602-17.402-49.503-17.402-71.103,0
	c-6,4.799-13.302,8.699-19.901,11.699c-7.5,3.602-16.502,0.3-19.802-7.2c-3.6-7.5-0.3-16.501,7.2-20.1
	c4.501-2.1,8.701-4.501,12.602-7.8c32.7-26.101,77.202-26.101,109.905,0c21.6,17.402,49.501,17.402,71.103,0
	c16.2-13.201,35.1-19.5,53.701-19.5c19.502-0.3,38.701,6.299,55.203,19.5c21.6,17.402,49.501,17.402,71.103,0
	c32.7-26.101,77.202-26.101,109.904,0c3.6,3.001,7.5,5.4,11.398,7.2C511.081,389.617,514.082,398.617,510.482,405.82z"/>
<path style="fill:#5ABEFF;" d="M510.482,405.82c-3.6,7.5-12.6,10.499-20.1,6.899c-6-2.701-12.701-6.601-18.101-10.8
	c-21.602-17.402-49.503-17.402-71.103,0c-32.702,26.101-76.204,26.101-108.904,0c-11.1-8.701-23.702-13.201-36.302-13.201v-29.701
	c19.502-0.3,38.701,6.299,55.203,19.5c21.6,17.402,49.501,17.402,71.103,0c32.7-26.101,77.202-26.101,109.904,0
	c3.6,3.001,7.5,5.4,11.398,7.2C511.081,389.617,514.082,398.617,510.482,405.82z"/>
<path style="fill:#67D0FF;" d="M510.482,330.816c-3.6,7.5-12.6,10.499-20.1,6.899c-6-2.701-12.701-6.601-18.101-10.8
	c-21.602-17.402-49.503-17.402-71.103,0c-32.702,26.101-76.204,26.101-108.904,0c-11.1-8.701-23.702-13.201-36.302-13.201
	c-12.002,0-24.301,4.499-34.8,13.201c-32.702,26.101-76.204,26.101-108.904,0c-21.602-17.402-49.503-17.402-71.103,0
	c-6,4.799-13.302,8.699-19.901,11.699c-7.5,3.602-16.502,0.3-19.802-7.2c-3.6-7.5-0.3-16.501,7.2-20.1
	c4.501-2.1,8.701-4.501,12.602-7.8c32.7-26.101,77.202-26.101,109.905,0c21.6,17.402,49.501,17.402,71.103,0
	c16.2-13.201,35.1-19.5,53.701-19.5c19.502-0.3,38.701,6.299,55.203,19.5c21.6,17.402,49.501,17.402,71.103,0
	c32.7-26.101,77.202-26.101,109.904,0c3.6,3.001,7.5,5.4,11.398,7.2C511.081,314.614,514.082,323.614,510.482,330.816z"/>
<path style="fill:#5ABEFF;" d="M510.482,330.816c-3.6,7.5-12.6,10.499-20.1,6.899c-6-2.701-12.701-6.601-18.101-10.8
	c-21.602-17.402-49.503-17.402-71.103,0c-32.702,26.101-76.204,26.101-108.904,0c-11.1-8.701-23.702-13.201-36.302-13.201v-29.701
	c19.502-0.3,38.701,6.299,55.203,19.5c21.6,17.402,49.501,17.402,71.103,0c32.7-26.101,77.202-26.101,109.904,0
	c3.6,3.001,7.5,5.4,11.398,7.2C511.081,314.614,514.082,323.614,510.482,330.816z"/>
<path style="fill:#53565C;" d="M330.073,187.41l-63.603,63.603c-2.699,3.001-6.599,4.501-10.499,4.501v-36.302l53.103-52.802
	c5.7-6,15.301-6,21,0C336.074,172.108,336.074,181.709,330.073,187.41z"/>
<g>
</g>
<g>
</g>
<g>
</g>
<g>
</g>
<g>
</g>
<g>
</g>
<g>
</g>
<g>
</g>
<g>
</g>
<g>
</g>
<g>
</g>
<g>
</g>
<g>
</g>
<g>
</g>
<g>
</g>
</svg>
